<svg id="Layer_1" enable-background="new 0 0 512 512" height="512" viewBox="0 0 512 512" width="512" xmlns="http://www.w3.org/2000/svg"><g><path d="m256 110.326c-8.284 0-15-6.708-15-14.993v-.015c0-36.08-29.182-65.318-65.317-65.318-8.284 0-15.008-6.716-15.008-15s6.708-15 14.992-15c52.655 0 95.333 42.572 95.333 95.318 0 8.285-6.716 15.008-15 15.008z" fill="#ff823c"/><path d="m256 110.326c-8.284 0-15-6.708-15-14.993v-.015c0-52.646 42.587-95.318 95.317-95.318 8.284 0 15.008 6.716 15.008 15s-6.708 15-14.992 15c-36.088 0-65.333 29.169-65.333 65.318 0 8.285-6.716 15.008-15 15.008z" fill="#d26432"/><path d="m352.4 206.733h-192.8c-8.284 0-15-6.716-15-15 0-61.426 49.974-111.4 111.4-111.4s111.4 49.974 111.4 111.4c0 8.285-6.715 15-15 15z" fill="#fdb442"/><path d="m367.4 191.733c0-61.426-49.974-111.4-111.4-111.4v126.4h96.4c8.285 0 15-6.715 15-15z" fill="#ff8c28"/><path d="m256 232.967c-61.427 0-111.4 49.974-111.4 111.4v.003s0 .002 0 .003c0 40.268 15.68 78.124 44.151 106.595l56.643 56.64c2.928 2.928 6.767 4.392 10.606 4.392s7.678-1.464 10.606-4.393l56.643-56.64c28.472-28.471 44.151-66.327 44.151-106.6 0-61.427-49.973-111.4-111.4-111.4z" fill="#fadc5c"/><path d="m323.249 450.967c28.472-28.471 44.151-66.327 44.151-106.6 0-61.426-49.974-111.4-111.4-111.4v279.033c3.839 0 7.678-1.464 10.606-4.393z" fill="#fdb442"/><path d="m144.6 344.367v.003s0 .002 0 .003c0 2.329.058 4.65.163 6.961h222.475c.104-2.314.163-4.636.163-6.967 0-7.895-.831-15.598-2.4-23.033h-218.001c-1.569 7.434-2.4 15.138-2.4 23.033z" fill="#a54628"/><path d="m162.41 415.6h187.18c5.122-9.53 9.181-19.58 12.125-30h-211.431c2.944 10.42 7.003 20.47 12.126 30z" fill="#a54628"/><path d="m367.4 344.367c0-7.895-.831-15.598-2.4-23.033h-109v30h111.238c.104-2.314.162-4.636.162-6.967z" fill="#78281e"/><path d="m361.716 385.6h-105.716v30h93.59c5.122-9.53 9.181-19.58 12.126-30z" fill="#78281e"/><path d="m416.667 176.733h-321.334c-52.566 0-95.333 42.767-95.333 95.334s42.767 95.333 95.35 95.333c86.503 0 140.022-57.927 160.65-104.393 20.498 46.17 73.966 104.393 160.667 104.393 52.566 0 95.333-42.766 95.333-95.333s-42.767-95.334-95.333-95.334z" fill="#f5f5fa"/><path d="m416.667 367.4c52.566 0 95.333-42.766 95.333-95.333s-42.767-95.333-95.333-95.333h-160.667v86.273c20.498 46.17 73.966 104.393 160.667 104.393z" fill="#e1e1eb"/></g></svg>