<?xml version="1.0" encoding="iso-8859-1"?>
<!-- Generator: Adobe Illustrator 19.0.0, SVG Export Plug-In . SVG Version: 6.00 Build 0)  -->
<svg version="1.1" id="Capa_1" xmlns="http://www.w3.org/2000/svg" xmlns:xlink="http://www.w3.org/1999/xlink" x="0px" y="0px"
	 viewBox="0 0 511.999 511.999" style="enable-background:new 0 0 511.999 511.999;" xml:space="preserve">
<path style="fill:#FFC850;" d="M508.081,408.426L365.99,280.274l-0.001-0.002c54.379-63.154,51.627-158.538-8.261-218.426
	c-78.469-78.469-205.693-78.469-284.162,0c-98.086,98.087-98.086,257.116,0,355.203c119.511,119.511,311.402,122.53,434.57,9.056
	C513.307,421.339,513.286,413.157,508.081,408.426z"/>
<path style="fill:#F9B428;" d="M94.169,417.049c-98.086-98.087-98.086-257.117,0-355.203C130.783,25.233,178.01,5.71,225.947,3.264
	c-54.8-2.796-110.527,16.727-152.383,58.582c-98.086,98.087-98.086,257.116,0,355.203c63.945,63.945,148.611,94.525,232.385,91.77
	C229.042,506.329,152.873,475.753,94.169,417.049z"/>
<path style="fill:#ED9D0F;" d="M289.393,331.045c34.26-4.103,65.72-18.428,88.095-40.399l-11.5-10.372l-0.001-0.002
	c0.012-0.014,0.023-0.028,0.035-0.041c-6.562,6.34-13.991,11.959-22.106,16.769c-0.044-0.024-0.085-0.052-0.13-0.075
	c-33.376-17.038-41.526-47.451-43.352-57.531c13.121-14.595,19.358-33.214,18.738-51.646c28.342,0.662,59.158-7.183,85.165-24.456
	c-0.44-5.803-1.196-11.585-2.263-17.322c-33.937,25.609-71.464,26.765-85.09,26.202c-6.373-25.319-25.745-43.844-47.779-53.191
	c21.37-27.921,31.526-63.721,24.108-100.41c-5.736-2.401-11.559-4.525-17.453-6.371c0.039,0.184,0.077,0.369,0.13,0.553
	c11.14,38.48-0.477,75.416-22.593,101.19c-26.076-5.707-54.035,0.364-75.637,17.704c-22.337-34.511-59.954-60.753-105.447-68.519
	c-4.438,4.501-8.675,9.125-12.704,13.865c48.079,4.979,85.911,31.452,106.719,65.522c-18.723,20.817-28.144,47.085-28.267,73.391
	c-46.687-7.439-99.217-1.042-138.021,27.016c0.087,6.315,0.407,12.627,0.968,18.923c48.674-42.115,118.657-33.493,138.114-30.059
	c2.048,14.727,7.059,29.115,15.029,42.197c0.131,0.243,0.273,0.48,0.43,0.709c6.664,10.753,15.117,20.279,25.25,28.374
	c-38.226,26.195-71.599,72.864-84.976,133.403c4.45,3.709,8.973,7.287,13.574,10.711c12.168-64.185,48.028-111.871,85.163-134.617
	c21.472,12.757,47.676,19.698,75.514,19.698c1.438,0,2.887-0.034,4.334-0.071c-10.022,56.448-5.295,124.321,22.654,176.808
	c5.81-0.01,11.618-0.189,17.421-0.519C271.771,437.642,285.857,349.306,289.393,331.045z M294.112,158.083
	c14.998,22.563,12.558,53.375-7.32,73.252c-17.525,17.523-46.039,17.524-63.564,0.001c-10.403-10.404-13-26.575-6.483-39.673
	c9.856,14.726,23.133,21.248,37.492,18.377C280.191,204.85,293.547,187.407,294.112,158.083z M254.184,130.049
	c8.244,2.303,16.191,6.054,23.444,11.292c5.544,41.582-11.128,50.486-26.423,53.546c-8.239,1.644-15.668-2.571-22.088-12.535
	c-6.102-9.469-20.178-8.857-25.509,1.074c-7.563,14.089-7.649,30.855-1.075,44.882c-17.208,2.021-31.056,12.184-41.084,26.23
	C133.833,191.167,182.085,112.678,254.184,130.049z M169.934,269.921c16.462-28.721,38.019-27.163,44.035-26.071
	c20.33,18.852,50.57,21.105,73.277,6.769c4.171,14.529,14.598,38.018,40.17,54.663c-16.32,6.847-34.491,10.829-53.319,11.444
	C233.673,318.02,192.604,303.239,169.934,269.921z"/>
<path style="fill:#FFC850;" d="M253.587,129.882c-67.18-18.162-120.968,58.496-92.137,124.656
	c10.029-14.047,23.878-24.209,41.084-26.23c-6.574-14.027-6.488-30.793,1.075-44.882c5.329-9.926,19.404-10.548,25.509-1.074
	c6.42,9.964,13.849,14.179,22.088,12.535c15.295-3.06,31.967-11.964,26.423-53.546C268.097,134.458,261.172,132.369,253.587,129.882
	z"/>
<path style="fill:#F9B428;" d="M244.164,127.98c-64.602-8.759-109.508,65.076-82.715,126.558
	c4.794-6.715,9.866-11.727,14.859-15.491C164.003,188.479,195.186,134.577,244.164,127.98z"/>
<path style="fill:#FFC850;" d="M287.247,250.619c-22.707,14.336-52.947,12.083-73.277-6.769c-6.017-1.092-27.574-2.65-44.035,26.071
	c22.664,33.308,63.724,48.099,104.164,46.805c18.828-0.614,36.999-4.597,53.319-11.444
	C301.844,288.637,291.417,265.148,287.247,250.619z"/>
<path style="fill:#F9B428;" d="M276.667,311.454c-38.07-4.652-75.367-23.9-93.639-57.973c-4.468,3.885-8.943,9.198-13.094,16.44
	c22.664,33.308,63.724,48.099,104.164,46.805c11.162-0.364,22.088-1.921,32.539-4.548
	C296.818,312.901,286.763,312.681,276.667,311.454z"/>
<path style="fill:#FFC850;" d="M216.744,191.664c-6.517,13.097-3.92,29.268,6.483,39.673c17.525,17.523,46.039,17.522,63.564-0.001
	c19.878-19.878,22.318-50.689,7.32-73.252c-0.564,29.324-13.92,46.767-39.876,51.958C239.878,212.912,226.6,206.39,216.744,191.664z
	"/>
<path style="fill:#F9B428;" d="M233.804,207.452c-6.347-3.112-12.131-8.424-17.06-15.789
	c-14.676,29.494,16.121,59.207,48.567,51.619C248.21,239.284,234.096,225.735,233.804,207.452z"/>
<g>
</g>
<g>
</g>
<g>
</g>
<g>
</g>
<g>
</g>
<g>
</g>
<g>
</g>
<g>
</g>
<g>
</g>
<g>
</g>
<g>
</g>
<g>
</g>
<g>
</g>
<g>
</g>
<g>
</g>
</svg>
